<svg xmlns="http://www.w3.org/2000/svg" viewBox="0 0 120 120" role="img"><title>Криосон</title><ns0:defs xmlns:ns0="http://www.w3.org/2000/svg"><ns0:linearGradient id="water" x1=".12" y1="0" x2=".83" y2="1"><ns0:stop offset="0.0" stop-color="#baded4" /><ns0:stop offset="0.5" stop-color="#6ba8b4" /><ns0:stop offset="1.0" stop-color="#3c6d88" /></ns0:linearGradient><ns0:linearGradient id="flame" x1=".12" y1="0" x2=".83" y2="1"><ns0:stop offset="0.0" stop-color="#f5d595" /><ns0:stop offset="0.5" stop-color="#db9b65" /><ns0:stop offset="1.0" stop-color="#ae6b50" /></ns0:linearGradient><ns0:linearGradient id="earth" x1=".12" y1="0" x2=".83" y2="1"><ns0:stop offset="0.0" stop-color="#c1a77d" /><ns0:stop offset="0.5" stop-color="#927654" /><ns0:stop offset="1.0" stop-color="#5e5941" /></ns0:linearGradient><ns0:linearGradient id="leaf" x1=".12" y1="0" x2=".83" y2="1"><ns0:stop offset="0.0" stop-color="#c5d39b" /><ns0:stop offset="0.5" stop-color="#8ea66a" /><ns0:stop offset="1.0" stop-color="#4d7456" /></ns0:linearGradient><ns0:linearGradient id="mint" x1=".12" y1="0" x2=".83" y2="1"><ns0:stop offset="0.0" stop-color="#d8e2ac" /><ns0:stop offset="0.5" stop-color="#a1c593" /><ns0:stop offset="1.0" stop-color="#6c9b7d" /></ns0:linearGradient><ns0:linearGradient id="cloud" x1=".12" y1="0" x2=".83" y2="1"><ns0:stop offset="0.0" stop-color="#e2e8d7" /><ns0:stop offset="0.5" stop-color="#bed0c1" /><ns0:stop offset="1.0" stop-color="#9bafa7" /></ns0:linearGradient><ns0:linearGradient id="stone" x1=".12" y1="0" x2=".83" y2="1"><ns0:stop offset="0.0" stop-color="#d4d3b6" /><ns0:stop offset="0.5" stop-color="#a0ac99" /><ns0:stop offset="1.0" stop-color="#6e8378" /></ns0:linearGradient><ns0:linearGradient id="gold" x1=".12" y1="0" x2=".83" y2="1"><ns0:stop offset="0.0" stop-color="#f0ddb0" /><ns0:stop offset="0.5" stop-color="#d2b577" /><ns0:stop offset="1.0" stop-color="#a58b53" /></ns0:linearGradient><ns0:linearGradient id="wood" x1=".12" y1="0" x2=".83" y2="1"><ns0:stop offset="0.0" stop-color="#d5b68a" /><ns0:stop offset="0.5" stop-color="#a98a60" /><ns0:stop offset="1.0" stop-color="#756146" /></ns0:linearGradient><ns0:linearGradient id="violet" x1=".12" y1="0" x2=".83" y2="1"><ns0:stop offset="0.0" stop-color="#c8c4d8" /><ns0:stop offset="0.5" stop-color="#a69bb9" /><ns0:stop offset="1.0" stop-color="#696485" /></ns0:linearGradient><ns0:linearGradient id="teal" x1=".12" y1="0" x2=".83" y2="1"><ns0:stop offset="0.0" stop-color="#aec8af" /><ns0:stop offset="0.5" stop-color="#6e9a85" /><ns0:stop offset="1.0" stop-color="#436c59" /></ns0:linearGradient><ns0:linearGradient id="ochre" x1=".12" y1="0" x2=".83" y2="1"><ns0:stop offset="0.0" stop-color="#dec19a" /><ns0:stop offset="0.5" stop-color="#b6956f" /><ns0:stop offset="1.0" stop-color="#8d7152" /></ns0:linearGradient><ns0:linearGradient id="roof" x1=".12" y1="0" x2=".83" y2="1"><ns0:stop offset="0.0" stop-color="#d5ab8d" /><ns0:stop offset="0.5" stop-color="#b1846c" /><ns0:stop offset="1.0" stop-color="#826450" /></ns0:linearGradient><ns0:linearGradient id="cream" x1=".12" y1="0" x2=".83" y2="1"><ns0:stop offset="0.0" stop-color="#f0e4c3" /><ns0:stop offset="0.5" stop-color="#d9cda5" /><ns0:stop offset="1.0" stop-color="#b7b28d" /></ns0:linearGradient><ns0:linearGradient id="rose" x1=".12" y1="0" x2=".83" y2="1"><ns0:stop offset="0.0" stop-color="#e6b4a2" /><ns0:stop offset="0.5" stop-color="#c88f88" /><ns0:stop offset="1.0" stop-color="#9c6b70" /></ns0:linearGradient><ns0:linearGradient id="skin" x1=".12" y1="0" x2=".83" y2="1"><ns0:stop offset="0.0" stop-color="#e8cfaa" /><ns0:stop offset="0.5" stop-color="#c6a77e" /><ns0:stop offset="1.0" stop-color="#b08b65" /></ns0:linearGradient><ns0:linearGradient id="glass" x1=".12" y1="0" x2=".83" y2="1"><ns0:stop offset="0.0" stop-color="#e1ead6" /><ns0:stop offset="0.5" stop-color="#adccc7" /><ns0:stop offset="1.0" stop-color="#74a3ac" /></ns0:linearGradient><ns0:linearGradient id="metal" x1=".12" y1="0" x2=".83" y2="1"><ns0:stop offset="0.0" stop-color="#d1d7b9" /><ns0:stop offset="0.5" stop-color="#9bae9a" /><ns0:stop offset="1.0" stop-color="#6c8877" /></ns0:linearGradient><ns0:linearGradient id="coal" x1=".12" y1="0" x2=".83" y2="1"><ns0:stop offset="0.0" stop-color="#7d8e80" /><ns0:stop offset="0.5" stop-color="#526d5d" /><ns0:stop offset="1.0" stop-color="#2d473b" /></ns0:linearGradient><ns0:linearGradient id="copper" x1=".12" y1="0" x2=".83" y2="1"><ns0:stop offset="0.0" stop-color="#dfba95" /><ns0:stop offset="0.5" stop-color="#bc8c69" /><ns0:stop offset="1.0" stop-color="#956b51" /></ns0:linearGradient><ns0:linearGradient id="night" x1=".12" y1="0" x2=".83" y2="1"><ns0:stop offset="0.0" stop-color="#777c9c" /><ns0:stop offset="0.5" stop-color="#455976" /><ns0:stop offset="1.0" stop-color="#253e50" /></ns0:linearGradient><ns0:linearGradient id="bread" x1=".12" y1="0" x2=".83" y2="1"><ns0:stop offset="0.0" stop-color="#e5c798" /><ns0:stop offset="0.5" stop-color="#c49f6a" /><ns0:stop offset="1.0" stop-color="#a77e4e" /></ns0:linearGradient><ns0:filter id="artShadow" x="-30%" y="-25%" width="160%" height="165%"><ns0:feDropShadow dx="0" dy="3" stdDeviation="2.8" flood-color="#071e11" flood-opacity=".2" /></ns0:filter></ns0:defs><ns0:g xmlns:ns0="http://www.w3.org/2000/svg" filter="url(#artShadow)"><ns0:g transform="rotate(-36 60 60)"><ns0:g transform="translate(1 0) scale(0.9)"><ns0:rect x="26" y="12" width="70" height="100" rx="30" fill="url(#glass)" stroke="#d6e4d3" stroke-width="2" /><ns0:g transform="translate(31 27) scale(0.48)"><ns0:path d="M23 108Q23 76 60 76Q96 76 97 108Z" fill="url(#teal)" stroke="#a5c4a5" stroke-width="1" stroke-linecap="round" stroke-linejoin="round" /><ns0:ellipse cx="60" cy="49" rx="24" ry="29" fill="url(#skin)" /><ns0:path d="M35 45Q26 12 58 11Q92 10 86 43L74 29Q49 42 35 36Z" fill="url(#earth)" /><ns0:circle cx="51" cy="50" r="2" fill="#404336" /><ns0:circle cx="71" cy="50" r="2" fill="#404336" /><ns0:path d="M52 66Q60 71 69 64" fill="none" stroke="#865d4b" stroke-width="2" stroke-linecap="round" stroke-linejoin="round" /></ns0:g><ns0:g transform="translate(5 70) scale(0.43)"><ns0:path d="M60 13V106M19 36L100 83M19 83L100 36M44 24L60 36L77 24M44 96L60 83L77 95M18 53L35 46L36 26M84 96L84 75L104 69M17 69L35 75L34 96M86 26L84 47L104 54" fill="none" stroke="#b9ddd0" stroke-width="4" stroke-linecap="round" stroke-linejoin="round" /><ns0:circle cx="60" cy="60" r="8" fill="#dbead1" /></ns0:g><ns0:path d="M40 29Q45 20 57 21" fill="none" stroke="#f2efdb" stroke-width="4" stroke-linecap="round" stroke-linejoin="round" /></ns0:g></ns0:g><ns0:polygon points="103.00,17.00 104.44,21.56 109.00,23.00 104.44,24.44 103.00,29.00 101.56,24.44 97.00,23.00 101.56,21.56" fill="#f5db9c" /><ns0:g transform="translate(83 81) scale(0.25)"><ns0:circle cx="60" cy="60" r="40" fill="url(#cream)" stroke="#d0d3b3" stroke-width="1.5" /><ns0:circle cx="44" cy="40" r="10" fill="#bec4a8" /><ns0:circle cx="76" cy="75" r="13" fill="#b1bba4" /><ns0:circle cx="39" cy="75" r="6" fill="#bdc3a7" /><ns0:circle cx="78" cy="42" r="4" fill="#bdc3a7" /><ns0:path d="M69 22Q39 51 60 100Q19 93 20 61Q16 28 69 22Z" fill="#97aaa0" opacity=".22" /></ns0:g></ns0:g></svg>